<?xml version="1.0" standalone="no"?>
<!DOCTYPE svg PUBLIC "-//W3C//DTD SVG 20010904//EN"
 "http://www.w3.org/TR/2001/REC-SVG-20010904/DTD/svg10.dtd">
<svg version="1.0" xmlns="http://www.w3.org/2000/svg"
 width="300.000000pt" height="300.000000pt" viewBox="0 0 300.000000 300.000000"
 preserveAspectRatio="xMidYMid meet">
<metadata>
Created by potrace 1.14, written by Peter Selinger 2001-2017
</metadata>
<g transform="translate(0.000000,300.000000) scale(0.100000,-0.100000)"
fill="#000000" stroke="none">
<path d="M1447 2984 c-1 -1 -38 -4 -82 -8 -97 -7 -118 -11 -220 -37 -44 -12
-87 -22 -95 -24 -33 -7 -170 -65 -245 -105 -139 -73 -272 -174 -376 -285 -78
-83 -101 -113 -163 -205 -113 -170 -197 -375 -223 -545 -2 -16 -6 -36 -8 -43
-8 -22 -19 -172 -19 -242 6 -751 578 -1384 1324 -1465 118 -13 286 -9 390 10
14 3 41 7 60 10 158 26 388 122 541 226 404 274 649 730 652 1213 2 404 -147
771 -429 1058 -241 244 -569 402 -901 433 -67 7 -202 12 -206 9z m223 -49 c76
-9 74 -8 165 -29 336 -78 670 -308 857 -591 129 -194 187 -338 234 -570 42
-209 10 -571 -57 -656 -122 -155 -298 -233 -509 -225 -75 2 -109 9 -160 30
-106 44 -196 112 -277 211 -30 37 -32 38 -20 10 6 -16 29 -60 50 -97 33 -59
74 -194 62 -207 -12 -12 -46 37 -60 88 -9 31 -35 86 -57 123 -192 321 -70 741
244 843 29 10 56 20 60 24 11 10 -27 66 -64 94 -74 55 -198 73 -294 40 -56
-18 -133 -68 -135 -86 -1 -7 -2 -30 -4 -52 -3 -51 -19 -81 -63 -120 -44 -40
-62 -106 -69 -246 -6 -110 10 -216 43 -296 l15 -35 -31 19 c-44 25 -69 112
-74 255 -3 79 8 171 29 237 4 14 0 16 -30 13 -63 -7 -127 36 -69 47 49 9 69
58 37 93 -48 53 -109 -11 -161 -172 -26 -81 -35 -137 -35 -217 0 -63 -6 -73
-37 -53 -32 20 0 242 53 361 49 110 117 162 180 136 17 -8 38 -21 46 -31 15
-18 19 -71 7 -98 -7 -16 -5 -17 22 -7 62 22 106 104 81 151 -6 11 -36 35 -67
55 -114 71 -132 86 -152 127 -26 55 -25 100 4 161 57 121 174 163 271 97 51
-35 66 -87 41 -139 -16 -34 -16 -34 6 -28 29 9 66 32 96 59 81 72 72 210 -15
251 -34 17 -103 22 -122 11 -5 -3 -14 1 -21 8 -9 12 -6 18 19 30 30 16 30 16
14 45 -9 15 -32 39 -51 52 -47 32 -138 34 -179 3 -38 -29 -65 -77 -65 -118 0
-18 -4 -39 -9 -47 -8 -12 -12 -11 -23 4 -17 22 -44 22 -98 -2 -90 -39 -147
-122 -148 -214 0 -46 -2 -49 -37 -64 -64 -26 -100 -78 -91 -134 3 -21 8 -22
79 -24 63 -1 84 -6 121 -28 93 -54 109 -187 32 -270 -28 -31 -55 -35 -141 -24
-56 8 -105 -23 -134 -84 -15 -30 -32 -71 -38 -91 -9 -27 -18 -38 -32 -38 -31
0 -32 22 -2 91 64 146 87 164 218 164 l89 0 23 34 c44 65 23 155 -44 186 -18
9 -66 17 -106 19 -84 3 -121 20 -156 73 -48 74 -37 159 27 213 20 17 47 40 60
50 15 13 22 29 22 53 0 48 -19 61 -77 51 -27 -4 -52 -8 -58 -9 -33 -4 -75 40
-75 80 0 30 24 65 53 75 25 8 37 7 68 -9 42 -22 59 -14 59 30 0 59 -63 90
-139 69 -52 -14 -90 -46 -112 -94 -32 -70 -19 -144 32 -194 37 -36 33 -47 -30
-74 -61 -26 -79 -43 -106 -100 -25 -55 -26 -125 -1 -162 8 -14 37 -39 63 -57
75 -50 104 -80 129 -134 41 -87 24 -157 -48 -200 -44 -26 -134 -25 -179 2 -70
40 -97 119 -64 183 16 32 61 60 94 60 34 0 34 20 0 34 -59 25 -142 -9 -190
-76 -17 -24 -23 -48 -26 -110 -2 -44 -11 -100 -19 -125 -19 -56 -48 -108 -60
-109 -41 -2 -132 -20 -203 -40 -48 -13 -89 -24 -93 -24 -6 0 -3 128 6 200 6
56 25 151 42 210 8 30 16 62 18 71 2 8 16 44 31 80 118 280 262 462 520 657
47 36 217 125 310 163 86 36 253 75 355 85 41 3 76 7 77 8 6 5 194 -2 253 -9z
m-910 -1429 c25 -3 54 -8 65 -10 11 -2 36 -6 55 -10 61 -11 74 -14 120 -26
228 -61 476 -191 636 -333 32 -28 88 -83 124 -122 111 -120 206 -211 253 -244
153 -105 361 -170 536 -166 39 0 71 -3 71 -7 0 -16 -186 -196 -250 -243 -54
-39 -69 -46 -95 -40 -16 3 -40 8 -52 11 -51 10 -194 68 -273 111 -111 60 -218
142 -309 239 -176 186 -210 219 -281 272 -135 100 -370 206 -505 228 -22 3
-42 7 -45 9 -3 2 -37 6 -75 10 -112 12 -273 8 -360 -9 -131 -25 -168 -34 -222
-57 l-42 -18 -12 42 c-6 23 -13 53 -15 67 -3 14 -7 32 -9 40 -2 8 -7 49 -11
90 -3 41 -8 77 -11 80 -13 14 258 78 371 87 39 3 72 6 73 7 4 4 220 -3 263 -8z
m46 -370 c173 -30 370 -113 510 -212 68 -48 134 -111 309 -295 149 -155 322
-263 529 -330 91 -30 95 -32 76 -46 -48 -34 -232 -114 -317 -138 l-91 -26 -54
28 c-153 81 -343 241 -493 416 -127 147 -355 266 -560 294 -113 15 -267 6
-370 -23 -33 -9 -69 -18 -80 -21 -17 -4 -27 9 -59 74 -58 114 -88 206 -72 215
7 4 53 19 102 33 176 52 386 63 570 31z m-42 -356 c73 -14 176 -51 242 -86 96
-51 171 -114 311 -262 139 -146 249 -238 373 -314 34 -20 56 -39 51 -42 -28
-18 -271 -25 -400 -13 -126 12 -138 18 -221 109 -160 176 -206 216 -303 258
-71 32 -170 49 -258 46 l-80 -3 -55 61 c-30 34 -77 94 -105 134 -50 71 -50 72
-27 81 25 9 147 38 188 44 45 7 224 -1 284 -13z m-5 -369 c103 -36 177 -89
270 -197 19 -21 50 -56 69 -76 l35 -37 -37 10 c-126 35 -293 115 -416 200 -85
59 -150 113 -150 125 0 14 169 -5 229 -25z"/>
<path d="M1845 2653 c-57 -20 -80 -45 -66 -72 7 -11 19 -21 27 -21 37 0 86
-34 112 -78 78 -134 -24 -315 -185 -327 -24 -2 -49 2 -60 10 -17 13 -16 14 8
34 103 81 -28 205 -140 133 -48 -31 -81 -94 -81 -153 0 -59 17 -81 103 -130
40 -23 82 -51 94 -62 l22 -19 42 35 c147 127 430 95 516 -58 42 -74 19 -176
-53 -233 -39 -31 -30 -42 36 -42 54 0 125 33 152 70 21 30 28 66 18 101 -10
33 -2 46 32 54 40 10 104 70 122 115 18 45 23 112 11 150 -13 43 -53 88 -91
100 -30 10 -35 16 -30 34 27 92 15 164 -37 222 -42 49 -82 67 -148 67 -47 0
-65 -5 -102 -30 -47 -32 -60 -32 -71 3 -9 30 -62 83 -93 95 -43 16 -95 17
-138 2z"/>
<path d="M2194 1523 c-66 -13 -92 -110 -42 -160 48 -47 134 -28 155 34 24 71
-38 140 -113 126z"/>
<path d="M2572 1342 c-28 -4 -53 -42 -49 -72 4 -27 41 -60 68 -60 10 0 28 9
39 20 46 46 7 123 -58 112z"/>
</g>
</svg>
